<svg width="105" height="104" viewBox="0 0 105 104" fill="none" xmlns="../../www.w3.org/2000/svg.html">
<path d="M52.4852 103.535C66.2062 103.535 79.3653 98.0842 89.0675 88.3819C98.7697 78.6797 104.22 65.5207 104.22 51.7996C104.22 38.0786 98.7697 24.9196 89.0675 15.2173C79.3653 5.51511 66.2062 0.0644535 52.4852 0.0644509L52.4852 51.7996L52.4852 103.535Z" fill="white"/>
<path fill-rule="evenodd" clip-rule="evenodd" d="M5.87666 99.211C16.9815 98.2414 27.4449 93.3957 35.389 85.4515C44.3146 76.526 49.3289 64.4203 49.3289 51.7977C49.3289 39.175 44.3146 27.0694 35.389 18.1439C27.4449 10.1997 16.9815 5.35396 5.87667 4.38438L5.87666 99.211ZM5.87665 103.367C18.0817 102.387 29.5962 97.1013 38.3175 88.38C48.0197 78.6777 53.4704 65.5187 53.4704 51.7977C53.4704 38.0767 48.0197 24.9176 38.3175 15.2154C29.5962 6.49408 18.0817 1.20811 5.87667 0.228405C4.50391 0.118214 3.12243 0.062498 1.73519 0.0624977L1.73518 103.533C3.12241 103.533 4.5039 103.477 5.87665 103.367Z" fill="white"/>
</svg>
