<svg width="100" height="100" viewBox="0 0 100 100" fill="none" xmlns="../../www.w3.org/2000/svg.html">
<rect x="0.166153" y="50.9754" width="4.19694" height="98.742" transform="rotate(-90 0.166153 50.9754)" fill="white"/>
<rect x="48.5123" y="0.574219" width="4.19694" height="98.742" fill="white"/>
<rect x="13.9024" y="15.7623" width="4.19694" height="98.742" transform="rotate(-45 13.9024 15.7623)" fill="white"/>
<rect x="83.7223" y="14.3082" width="4.19694" height="98.742" transform="rotate(45 83.7223 14.3082)" fill="white"/>
<rect x="3.44698" y="32.2203" width="4.19694" height="98.742" transform="rotate(-67.7712 3.44698 32.2203)" fill="white"/>
<rect x="67.268" y="3.85477" width="4.19694" height="98.742" transform="rotate(22.2288 67.268 3.85477)" fill="white"/>
<rect x="29.4843" y="4.82031" width="4.19694" height="98.742" transform="rotate(-22.7712 29.4843 4.82031)" fill="white"/>
<rect x="94.6621" y="29.8901" width="4.19694" height="98.742" transform="rotate(67.2288 94.6621 29.8901)" fill="white"/>
<path d="M49.7817 0.259855C36.648 0.259856 24.0521 5.47723 14.7651 14.7642C5.47812 24.0512 0.26074 36.6471 0.26074 49.7809C0.26074 62.9147 5.47812 75.5105 14.7651 84.7975C24.0521 94.0845 36.648 99.3019 49.7817 99.3019L49.7818 49.7809L49.7817 0.259855Z" fill="white"/>
</svg>
