<svg width="140" height="35" viewBox="0 0 140 35" fill="none" xmlns="../../www.w3.org/2000/svg.html">
<g clip-path="url(#clip0_1729_99)">
<path d="M7.09456 19.8656L0 15.1057V9.47266L7.09456 14.2232V19.8656Z" fill="url(#paint0_linear_1729_99)"/>
<path d="M21.2735 34.9994L7.09375 25.4983V19.8652L21.2735 29.3663V34.9994Z" fill="url(#paint1_linear_1729_99)"/>
<path d="M7.09375 19.8656L14.1789 15.1057V9.47266L7.09375 14.2232V19.8656Z" fill="#0B5CFC"/>
<path d="M21.2743 19.8656L14.1797 15.1057V9.47266L21.2743 14.2232V19.8656Z" fill="#2734FF"/>
<path d="M21.2734 19.8656L28.368 15.1057V9.47266L21.2734 14.2232V19.8656Z" fill="url(#paint2_linear_1729_99)"/>
<path d="M21.2734 34.9994L35.4532 25.4983V19.8652L21.2734 29.3663V34.9994Z" fill="url(#paint3_linear_1729_99)"/>
<path d="M14.1233 0.00938841L0 9.47291L7.09456 14.2234L14.1797 9.47291L21.2743 14.2234L28.3688 9.47291L14.2268 0L14.1233 0.00938841Z" fill="#ECF4FF"/>
<path d="M21.2735 29.3665L35.4532 19.8654L28.368 15.1055L21.2735 19.8654L14.1789 15.1055L7.09375 19.8654L21.2735 29.3665Z" fill="#ECF4FF"/>
<path d="M48.1488 7.86719H45.8906V22.8511H55.441V20.7105H48.1488V7.86719Z" fill="#0B0E3A"/>
<path d="M100.899 7.86719H98.6406V22.8511H108.191V20.7105H100.899V7.86719Z" fill="#0B0E3A"/>
<path d="M136.892 16.6449L134.963 16.3257C133.89 16.1098 133.354 15.6779 133.354 15.0395C133.355 14.8502 133.404 14.6642 133.498 14.4997C133.592 14.3352 133.727 14.1978 133.89 14.1007C134.377 13.8182 134.937 13.6874 135.499 13.7251C136.092 13.687 136.68 13.8527 137.165 14.1946C137.334 14.3112 137.475 14.4648 137.576 14.6437C137.677 14.8227 137.736 15.0222 137.748 15.2273H139.893C139.884 14.8718 139.798 14.5225 139.639 14.2039C139.435 13.8169 139.179 13.4599 138.877 13.1431C138.483 12.7489 138.003 12.4502 137.475 12.2699C136.843 12.0345 136.174 11.9168 135.499 11.9226C134.367 11.8496 133.243 12.1605 132.309 12.8051C131.964 13.0615 131.684 13.3959 131.492 13.781C131.301 14.1661 131.204 14.5909 131.209 15.0207C131.209 16.7482 132.244 17.7841 134.314 18.1283L136.243 18.4475C136.697 18.4858 137.131 18.6518 137.494 18.9263C137.618 19.0478 137.714 19.1946 137.776 19.3567C137.837 19.5187 137.863 19.6922 137.852 19.8652C137.838 20.0549 137.78 20.2388 137.682 20.4019C137.584 20.565 137.448 20.7027 137.287 20.804C136.783 21.1146 136.194 21.2592 135.603 21.2171C134.953 21.2603 134.308 21.0778 133.777 20.7007C133.594 20.5803 133.441 20.4195 133.33 20.2306C133.219 20.0418 133.153 19.83 133.137 19.6117H130.992C131.001 19.9721 131.084 20.3269 131.237 20.6538C131.431 21.0558 131.684 21.4262 131.99 21.7522C132.393 22.177 132.894 22.499 133.448 22.6911C134.138 22.9441 134.868 23.0682 135.603 23.0572C136.77 23.1296 137.926 22.798 138.877 22.1184C139.231 21.8513 139.517 21.5046 139.712 21.1066C139.906 20.7086 140.004 20.2704 139.997 19.8276C139.997 18.0438 138.962 16.9829 136.892 16.6449Z" fill="#0B0E3A"/>
<path d="M80.6197 12.3741L80.9773 13.5101L80.3563 13.7072L80.1399 13.0313L79.9799 12.8247C79.6718 12.5889 79.329 12.402 78.9637 12.2708C78.3926 12.0307 77.7766 11.9154 77.1571 11.9328C76.4921 11.9149 75.8312 12.0417 75.2202 12.3043C74.6093 12.5669 74.063 12.9592 73.6193 13.4537C72.6512 14.5739 72.1525 16.0229 72.2267 17.5001C72.1479 18.9972 72.6577 20.4657 73.6475 21.5935C74.0924 22.0759 74.636 22.4571 75.2416 22.7115C75.8471 22.9658 76.5004 23.0872 77.1571 23.0675C77.7125 23.0929 78.2672 23.0026 78.7856 22.8021C79.304 22.6017 79.7749 22.2955 80.1681 21.9033L80.328 21.3963L80.949 21.5935L80.7232 22.3258L80.8079 22.8515H82.6898V7.83008H80.6197V12.3741ZM79.7353 20.1383C79.458 20.4535 79.1164 20.7061 78.7335 20.8791C78.3506 21.0522 77.935 21.1417 77.5147 21.1417C77.0943 21.1417 76.6788 21.0522 76.2958 20.8791C75.9129 20.7061 75.5714 20.4535 75.2941 20.1383C74.6596 19.408 74.3237 18.4662 74.3532 17.5001C74.3243 16.537 74.6602 15.5984 75.2941 14.8714C75.5714 14.5561 75.9129 14.3036 76.2958 14.1305C76.6788 13.9575 77.0943 13.868 77.5147 13.868C77.935 13.868 78.3506 13.9575 78.7335 14.1305C79.1164 14.3036 79.458 14.5561 79.7353 14.8714C80.3496 15.6062 80.6652 16.5443 80.6197 17.5001C80.6648 18.4588 80.3494 19.3997 79.7353 20.1383V20.1383Z" fill="#0B0E3A"/>
<path d="M113.401 11.9323C112.279 11.8702 111.17 12.2024 110.268 12.8712C109.898 13.1507 109.592 13.5069 109.373 13.9153C109.154 14.3237 109.026 14.7746 108.998 15.2371H111.143C111.241 14.8244 111.477 14.457 111.811 14.1949C112.273 13.8647 112.834 13.7023 113.401 13.7349C113.702 13.7172 114.004 13.7614 114.287 13.8647C114.57 13.9681 114.829 14.1284 115.048 14.3358C115.255 14.5559 115.416 14.816 115.519 15.1001C115.623 15.3842 115.667 15.6863 115.65 15.9881V16.1947H112.968C111.794 16.1082 110.626 16.441 109.675 17.1335C109.308 17.4531 109.019 17.8514 108.828 18.2985C108.637 18.7456 108.55 19.23 108.574 19.7153C108.558 20.1691 108.645 20.6206 108.827 21.0366C109.009 21.4526 109.283 21.8224 109.628 22.1188C110.418 22.7723 111.425 23.1072 112.451 23.0576C113.317 23.082 114.17 22.843 114.897 22.3722C115.102 22.2329 115.291 22.0724 115.462 21.8934L115.622 21.3865L116.252 21.5836L115.942 22.5225V22.8041H117.767V16.0069C117.805 15.4622 117.727 14.9156 117.539 14.4028C117.351 13.89 117.057 13.4225 116.675 13.0308C115.773 12.2461 114.595 11.8511 113.401 11.9323V11.9323ZM115.65 18.354C115.676 18.7432 115.621 19.1336 115.488 19.5004C115.356 19.8673 115.148 20.2026 114.878 20.4852C114.576 20.7532 114.223 20.9585 113.84 21.0891C113.457 21.2197 113.052 21.2729 112.648 21.2456C112.132 21.2831 111.619 21.1294 111.209 20.8138C111.044 20.6674 110.915 20.4859 110.83 20.2827C110.745 20.0795 110.707 19.8599 110.719 19.6402C110.712 19.4014 110.761 19.1642 110.865 18.9485C110.968 18.7329 111.121 18.5451 111.312 18.4009C111.83 18.0466 112.455 17.8809 113.081 17.9315H115.65V18.354Z" fill="#0B0E3A"/>
<path d="M66.4022 11.9323C65.584 11.92 64.7799 12.145 64.0875 12.5801C63.9463 12.6739 63.824 12.7866 63.6923 12.8899L63.5135 13.4626L62.8831 13.2654L63.0713 12.6739L62.9678 12.1482H61.0859V22.851H63.2312V16.4293C63.2221 16.0929 63.2845 15.7583 63.4142 15.4476C63.5439 15.1369 63.7381 14.8572 63.984 14.6267C64.5211 14.1247 65.2335 13.8518 65.9693 13.8663C66.3193 13.8512 66.6684 13.9113 66.9931 14.0425C67.3177 14.1737 67.6104 14.3729 67.8512 14.6267C68.0894 14.8624 68.278 15.1434 68.4056 15.453C68.5333 15.7626 68.5975 16.0945 68.5945 16.4293V22.851H70.7398V16.4293C70.7641 15.8281 70.6685 15.228 70.4585 14.6639C70.2486 14.0998 69.9284 13.583 69.5166 13.1434C69.1114 12.7352 68.6248 12.4164 68.0883 12.2078C67.5518 11.9992 66.9773 11.9053 66.4022 11.9323V11.9323Z" fill="#0B0E3A"/>
<path d="M89.8188 19.6123V20.5511H89.1601V20.2789L86.0551 12.1485H83.7969L88.191 23.6024L87.8428 24.5412C87.8005 24.7088 87.7126 24.8615 87.5888 24.9825C87.5301 25.0489 87.4576 25.1018 87.3764 25.1374C87.2951 25.1731 87.2071 25.1907 87.1183 25.189H84.973V27.0667H87.2218C87.8372 27.1073 88.4498 26.9529 88.972 26.6254C89.4181 26.2708 89.7462 25.7897 89.9129 25.2453L94.6175 12.1016H92.3593L89.8188 19.6123Z" fill="#0B0E3A"/>
<path d="M57.1406 10.6939H57.6017L59.2953 10.1212V7.88672H57.1406V10.6939Z" fill="#0B0E3A"/>
<path d="M57.1406 22.8509H59.2953V12.1387L57.1406 12.1668V22.8509Z" fill="#0B0E3A"/>
<path d="M125.142 11.9328C124.548 11.926 123.959 12.041 123.411 12.2708C123.045 12.3997 122.701 12.5868 122.395 12.8247C122.348 12.8247 122.301 12.9186 122.254 12.9655L122.018 13.7072L121.388 13.5101L121.708 12.5243V7.83008H119.562V22.8515H121.491L121.595 22.2319L121.378 21.5935L122.009 21.3963L122.197 21.969C122.588 22.3407 123.051 22.6296 123.557 22.8184C124.063 23.0072 124.602 23.0919 125.142 23.0675C125.804 23.0913 126.462 22.9719 127.073 22.7174C127.684 22.463 128.232 22.0795 128.68 21.5935C129.648 20.4734 130.147 19.0243 130.073 17.5471C130.147 16.0698 129.648 14.6208 128.68 13.5007C128.241 12.9976 127.696 12.5965 127.085 12.3257C126.474 12.0548 125.811 11.9207 125.142 11.9328V11.9328ZM127.024 20.1383C126.747 20.4535 126.405 20.7061 126.022 20.8791C125.639 21.0522 125.224 21.1417 124.803 21.1417C124.383 21.1417 123.968 21.0522 123.585 20.8791C123.202 20.7061 122.86 20.4535 122.583 20.1383C121.969 19.3997 121.653 18.4588 121.698 17.5001C121.653 16.5443 121.969 15.6062 122.583 14.8714C122.86 14.5561 123.202 14.3036 123.585 14.1305C123.968 13.9575 124.383 13.868 124.803 13.868C125.224 13.868 125.639 13.9575 126.022 14.1305C126.405 14.3036 126.747 14.5561 127.024 14.8714C127.658 15.5984 127.994 16.537 127.965 17.5001C127.994 18.4662 127.658 19.408 127.024 20.1383V20.1383Z" fill="#0B0E3A"/>
</g>
<defs>
<linearGradient id="paint0_linear_1729_99" x1="1.31729" y1="12.9558" x2="14.7034" y2="23.2741" gradientUnits="userSpaceOnUse">
<stop stop-color="#129EFE"/>
<stop offset="1" stop-color="#0BEEFF"/>
</linearGradient>
<linearGradient id="paint1_linear_1729_99" x1="7.09375" y1="27.4323" x2="21.2735" y2="27.4323" gradientUnits="userSpaceOnUse">
<stop stop-color="#129EFE"/>
<stop offset="1" stop-color="#0BEEFF"/>
</linearGradient>
<linearGradient id="paint2_linear_1729_99" x1="29.2713" y1="11.6602" x2="23.4081" y2="15.6341" gradientUnits="userSpaceOnUse">
<stop stop-color="#F83454"/>
<stop offset="1" stop-color="#F88413"/>
</linearGradient>
<linearGradient id="paint3_linear_1729_99" x1="34.6816" y1="23.0667" x2="23.0403" y2="31.1555" gradientUnits="userSpaceOnUse">
<stop stop-color="#F83454"/>
<stop offset="1" stop-color="#F88413"/>
</linearGradient>
<clipPath id="clip0_1729_99">
<rect width="140" height="35" fill="white"/>
</clipPath>
</defs>
</svg>
