<svg viewBox="0 0 121 38" fill="none" xmlns="http://www.w3.org/2000/svg">
                <path d="M13.5857 0.732422H20.2994L33.9496 37.0567H26.9852L24.1158 28.9847H9.37917L6.56555 37.0567H0.046875L13.5857 0.732422ZM11.2456 23.6961H22.2215L16.7057 8.10863L11.2456 23.6961Z" fill="currentColor"></path>
                <path d="M51.6786 33.3967C50.8978 34.7916 49.8381 35.8797 48.4996 36.633C47.1333 37.3862 45.5438 37.7489 43.7034 37.7489C42.086 37.7489 40.7196 37.4978 39.5763 36.9957C38.433 36.4935 37.5128 35.7681 36.7599 34.8474C36.0349 33.8989 35.4772 32.7829 35.1426 31.4717C34.8079 30.1604 34.6406 28.7097 34.6406 27.0916V10.0732H40.636V25.6408C40.636 26.5336 40.6917 27.4263 40.7754 28.2912C40.8869 29.1561 41.0821 29.9372 41.4168 30.6347C41.7514 31.3322 42.2533 31.8623 42.9226 32.2807C43.5918 32.6713 44.4841 32.8945 45.5717 32.8945C46.6592 32.8945 47.6073 32.6992 48.416 32.2807C49.1968 31.8623 49.8381 31.2764 50.3122 30.551C50.7862 29.8256 51.1209 28.9329 51.3439 27.9006C51.567 26.8684 51.6786 25.7524 51.6786 24.5249V10.1011H57.646V37.1072H51.6786V33.3967Z" fill="currentColor"></path>
                <path d="M76.3 16.1098C75.3013 15.9985 74.3581 15.9707 73.4426 15.9707C72.4994 15.9707 71.6672 16.082 70.946 16.3046C70.2247 16.5271 69.5867 16.8887 69.0873 17.4173C68.588 17.9458 68.1996 18.6413 67.9499 19.5593C67.6725 20.4495 67.5616 21.59 67.5616 22.9253V37.057H61.625V10.1289H67.4783V14.9414C68.1996 13.4393 69.1983 12.2709 70.4466 11.4085C71.695 10.5462 73.1375 10.1289 74.7742 10.0732C74.9961 10.0732 75.2735 10.0732 75.551 10.1011C75.8284 10.1289 76.078 10.1567 76.3277 10.1845V16.1098H76.3Z" fill="currentColor"></path>
                <path d="M90.1704 9.20898C91.836 9.20898 93.3629 9.40485 94.7787 9.82456C96.1945 10.2163 97.416 10.8878 98.4432 11.7832C99.4703 12.6786 100.275 13.8818 100.803 15.3648C101.358 16.8478 101.608 18.6665 101.58 20.7931C101.58 21.1289 101.58 21.5766 101.552 22.1362C101.525 22.6958 101.525 23.2834 101.525 23.9269C101.525 24.5705 101.525 25.2421 101.497 25.9136C101.469 26.6131 101.469 27.2567 101.469 27.8443C101.469 29.5511 101.525 31.258 101.663 32.9088C101.802 34.5597 101.997 35.9867 102.274 37.106H96.833C96.722 36.5463 96.6387 35.9867 96.5554 35.4551C96.4721 34.9234 96.3888 34.168 96.3333 33.2446C95.5005 34.7556 94.3068 35.8748 92.7799 36.6303C91.253 37.3858 89.4763 37.7495 87.4775 37.7495C86.0062 37.7495 84.6737 37.5537 83.4522 37.1619C82.2307 36.7702 81.1758 36.2386 80.3152 35.511C79.4268 34.8115 78.7606 33.9721 78.2609 32.9648C77.7889 31.9855 77.5391 30.8662 77.5391 29.6071C77.5391 27.9282 78.011 26.5292 78.9826 25.4379C79.9543 24.3187 81.2591 23.4233 82.897 22.7238C84.5349 22.0242 86.4504 21.4926 88.6435 21.1009C90.8366 20.7371 93.1408 20.4014 95.6115 20.1495V19.506C95.6115 18.3587 95.4727 17.4074 95.1674 16.6519C94.862 15.8964 94.4456 15.2808 93.9459 14.8331C93.4184 14.3855 92.8354 14.0497 92.1136 13.8818C91.4196 13.6859 90.6423 13.602 89.8095 13.602C88.2826 13.602 87.0056 13.9937 85.9507 14.8052C84.9235 15.6166 84.3683 16.8478 84.3128 18.4707H78.4552C78.5662 17.0996 78.8994 15.8405 79.5101 14.6932C80.1208 13.546 80.9259 12.5667 81.9253 11.7552C82.9525 10.9438 84.1462 10.3002 85.5343 9.85254C86.9778 9.43283 88.5047 9.20898 90.1704 9.20898ZM95.8059 24.3746C93.6683 24.5705 91.8638 24.8223 90.3647 25.0742C88.8656 25.354 87.6441 25.6897 86.6725 26.0815C85.7008 26.4732 85.0068 26.9769 84.5626 27.5085C84.1184 28.0681 83.8964 28.7397 83.8964 29.4951C83.8964 30.6703 84.3405 31.5937 85.2567 32.2653C86.145 32.9368 87.3665 33.2726 88.8656 33.2726C91.0587 33.2726 92.7799 32.657 94.0014 31.4258C95.2229 30.1947 95.8614 28.1521 95.8614 25.298V24.3746H95.8059Z" fill="currentColor"></path>
                <path d="M107.782 1.73698H105.215V0.55957H111.788V1.73698H109.221V8.6893H107.782V1.73698Z" fill="currentColor"></path>
                <path d="M116.107 8.6893L114.045 2.10142V8.6893H112.652V0.55957H114.853L116.804 7.03532L118.754 0.55957H120.955V8.6893H119.562V2.10142L117.5 8.6893H116.107Z" fill="currentColor"></path>
              </svg>

              <svg width="241" height="41" viewBox="0 0 241 41" fill="none" xmlns="http://www.w3.org/2000/svg">
<path d="M0.995026 40V3.63633H13.9567C16.7739 3.63633 19.1117 4.12165 20.9702 5.0923C22.8404 6.06294 24.2372 7.40645 25.1605 9.12284C26.0838 10.8274 26.5455 12.7983 26.5455 15.0355C26.5455 17.2609 26.0779 19.2199 25.1428 20.9126C24.2195 22.5935 22.8227 23.9015 20.9524 24.8366C19.094 25.7717 16.7562 26.2393 13.9389 26.2393H4.12003V21.5163H13.4418C15.2173 21.5163 16.6615 21.2618 17.7741 20.7528C18.8987 20.2438 19.7214 19.504 20.2422 18.5333C20.763 17.5627 21.0234 16.3967 21.0234 15.0355C21.0234 13.6624 20.7571 12.4727 20.2244 11.4666C19.7036 10.4604 18.8809 9.69102 17.7564 9.15835C16.6437 8.61384 15.1818 8.34159 13.3707 8.34159H6.48153V40H0.995026ZM18.946 23.5937L27.9304 40H21.6804L12.8736 23.5937H18.946Z" fill="currentColor"/>
<path d="M29.2955 40V12.7272H34.6044V40H29.2955ZM31.9766 8.51914C31.0533 8.51914 30.2602 8.21138 29.5973 7.59585C28.9463 6.96848 28.6207 6.22274 28.6207 5.35863C28.6207 4.48268 28.9463 3.73695 29.5973 3.12141C30.2602 2.49405 31.0533 2.18036 31.9766 2.18036C32.8999 2.18036 33.687 2.49405 34.3381 3.12141C35.0009 3.73695 35.3324 4.48268 35.3324 5.35863C35.3324 6.22274 35.0009 6.96848 34.3381 7.59585C33.687 8.21138 32.8999 8.51914 31.9766 8.51914Z" fill="currentColor"/>
<path d="M48.4561 40.5326C46.2544 40.5326 44.2895 39.9704 42.5613 38.8458C40.8449 37.7095 39.4954 36.0937 38.513 33.9985C37.5423 31.8915 37.057 29.3643 37.057 26.4169C37.057 23.4694 37.5482 20.9481 38.5307 18.853C39.525 16.7578 40.8863 15.1539 42.6145 14.0412C44.3427 12.9285 46.3018 12.3721 48.4917 12.3721C50.1844 12.3721 51.5456 12.6562 52.5755 13.2244C53.6171 13.7807 54.422 14.4318 54.9902 15.1775C55.5703 15.9233 56.0201 16.5802 56.3397 17.1484H56.6593V3.63633H61.9682V40H56.7836V35.7564H56.3397C56.0201 36.3364 55.5584 36.9993 54.9547 37.745C54.3629 38.4907 53.5461 39.1418 52.5044 39.6981C51.4628 40.2545 50.1133 40.5326 48.4561 40.5326ZM49.628 36.0049C51.155 36.0049 52.4453 35.6025 53.4988 34.7976C54.5641 33.9808 55.369 32.8503 55.9135 31.4062C56.4699 29.9621 56.748 28.2812 56.748 26.3636C56.748 24.4697 56.4758 22.8125 55.9313 21.392C55.3868 19.9716 54.5878 18.8648 53.5343 18.0717C52.4808 17.2786 51.1787 16.8821 49.628 16.8821C48.03 16.8821 46.6983 17.2964 45.633 18.125C44.5676 18.9536 43.7627 20.084 43.2182 21.5163C42.6855 22.9486 42.4192 24.5644 42.4192 26.3636C42.4192 28.1865 42.6915 29.826 43.236 31.2819C43.7805 32.7379 44.5854 33.892 45.6507 34.7443C46.7279 35.5847 48.0537 36.0049 49.628 36.0049Z" fill="currentColor"/>
<path d="M77.7997 40.5504C75.1127 40.5504 72.7985 39.9763 70.8572 38.8281C68.9278 37.6681 67.4363 36.0405 66.3828 33.9453C65.3411 31.8383 64.8203 29.3702 64.8203 26.5412C64.8203 23.7476 65.3411 21.2855 66.3828 19.1548C67.4363 17.0241 68.9041 15.361 70.7862 14.1654C72.6802 12.9699 74.8937 12.3721 77.4268 12.3721C78.9657 12.3721 80.4571 12.6266 81.9013 13.1356C83.3454 13.6446 84.6416 14.4436 85.7898 15.5326C86.938 16.6217 87.8435 18.0362 88.5064 19.7762C89.1693 21.5045 89.5007 23.6056 89.5007 26.0795V27.9616H67.821V23.9843H84.2983C84.2983 22.5876 84.0142 21.3506 83.446 20.2734C82.8778 19.1844 82.0788 18.3262 81.049 17.6988C80.031 17.0715 78.8355 16.7578 77.4624 16.7578C75.9709 16.7578 74.6688 17.1247 73.5561 17.8586C72.4553 18.5807 71.603 19.5277 70.9993 20.6995C70.4074 21.8596 70.1115 23.1202 70.1115 24.4815V27.5887C70.1115 29.4117 70.4311 30.9623 71.0703 32.2407C71.7214 33.5191 72.6269 34.4957 73.7869 35.1704C74.947 35.8333 76.3023 36.1647 77.853 36.1647C78.8591 36.1647 79.7765 36.0227 80.6051 35.7386C81.4337 35.4427 82.1499 35.0047 82.7535 34.4247C83.3572 33.8447 83.8189 33.1285 84.1385 32.2762L89.1634 33.1818C88.7609 34.6614 88.0388 35.9576 86.9972 37.0703C85.9673 38.1711 84.6712 39.0293 83.1087 39.6449C81.558 40.2485 79.7883 40.5504 77.7997 40.5504Z" fill="currentColor"/>
<path d="M125.434 3.63633H130.938V27.5532C130.938 30.0982 130.34 32.3532 129.145 34.3181C127.949 36.2713 126.268 37.8101 124.102 38.9346C121.936 40.0473 119.397 40.6037 116.485 40.6037C113.585 40.6037 111.052 40.0473 108.886 38.9346C106.719 37.8101 105.039 36.2713 103.843 34.3181C102.647 32.3532 102.05 30.0982 102.05 27.5532V3.63633H107.536V27.1093C107.536 28.7547 107.897 30.2166 108.619 31.495C109.353 32.7734 110.389 33.7796 111.727 34.5135C113.064 35.2355 114.65 35.5966 116.485 35.5966C118.332 35.5966 119.924 35.2355 121.261 34.5135C122.611 33.7796 123.641 32.7734 124.351 31.495C125.073 30.2166 125.434 28.7547 125.434 27.1093V3.63633Z" fill="currentColor"/>
<path d="M140.298 23.8068V40H134.989V12.7272H140.085V17.1662H140.422C141.049 15.722 142.032 14.562 143.369 13.686C144.719 12.8101 146.418 12.3721 148.465 12.3721C150.324 12.3721 151.951 12.7628 153.348 13.544C154.745 14.3134 155.828 15.4616 156.597 16.9886C157.367 18.5156 157.752 20.4036 157.752 22.6527V40H152.443V23.2919C152.443 21.3151 151.928 19.7703 150.898 18.6576C149.868 17.5331 148.454 16.9708 146.654 16.9708C145.423 16.9708 144.328 17.2372 143.369 17.7699C142.423 18.3025 141.671 19.0838 141.115 20.1136C140.57 21.1316 140.298 22.3627 140.298 23.8068Z" fill="currentColor"/>
<path d="M174.102 12.7272V16.9886H159.205V12.7272H174.102ZM163.2 6.19315H168.509V31.9922C168.509 33.022 168.663 33.7973 168.971 34.3181C169.279 34.8271 169.675 35.1763 170.161 35.3657C170.658 35.5433 171.196 35.6321 171.776 35.6321C172.203 35.6321 172.575 35.6025 172.895 35.5433C173.215 35.4841 173.463 35.4368 173.641 35.4012L174.6 39.7869C174.292 39.9053 173.854 40.0236 173.286 40.142C172.718 40.2722 172.007 40.3432 171.155 40.3551C169.758 40.3788 168.456 40.1302 167.249 39.6093C166.041 39.0885 165.065 38.2836 164.319 37.1946C163.573 36.1056 163.2 34.7384 163.2 33.093V6.19315Z" fill="currentColor"/>
<path d="M187.936 40.5504C185.249 40.5504 182.935 39.9763 180.994 38.8281C179.065 37.6681 177.573 36.0405 176.52 33.9453C175.478 31.8383 174.957 29.3702 174.957 26.5412C174.957 23.7476 175.478 21.2855 176.52 19.1548C177.573 17.0241 179.041 15.361 180.923 14.1654C182.817 12.9699 185.03 12.3721 187.564 12.3721C189.102 12.3721 190.594 12.6266 192.038 13.1356C193.482 13.6446 194.778 14.4436 195.926 15.5326C197.075 16.6217 197.98 18.0362 198.643 19.7762C199.306 21.5045 199.637 23.6056 199.637 26.0795V27.9616H177.958V23.9843H194.435C194.435 22.5876 194.151 21.3506 193.583 20.2734C193.015 19.1844 192.216 18.3262 191.186 17.6988C190.168 17.0715 188.972 16.7578 187.599 16.7578C186.108 16.7578 184.806 17.1247 183.693 17.8586C182.592 18.5807 181.74 19.5277 181.136 20.6995C180.544 21.8596 180.248 23.1202 180.248 24.4815V27.5887C180.248 29.4117 180.568 30.9623 181.207 32.2407C181.858 33.5191 182.764 34.4957 183.924 35.1704C185.084 35.8333 186.439 36.1647 187.99 36.1647C188.996 36.1647 189.913 36.0227 190.742 35.7386C191.57 35.4427 192.287 35.0047 192.89 34.4247C193.494 33.8447 193.956 33.1285 194.275 32.2762L199.3 33.1818C198.898 34.6614 198.176 35.9576 197.134 37.0703C196.104 38.1711 194.808 39.0293 193.245 39.6449C191.695 40.2485 189.925 40.5504 187.936 40.5504Z" fill="currentColor"/>
<path d="M202.028 40V12.7272H207.159V17.0596H207.443C207.941 15.5918 208.816 14.4377 210.071 13.5973C211.338 12.745 212.77 12.3189 214.368 12.3189C214.7 12.3189 215.09 12.3307 215.54 12.3544C216.002 12.378 216.363 12.4076 216.623 12.4431V17.5213C216.41 17.4621 216.031 17.397 215.487 17.326C214.942 17.2431 214.398 17.2017 213.853 17.2017C212.598 17.2017 211.48 17.468 210.497 18.0007C209.527 18.5215 208.757 19.2495 208.189 20.1846C207.621 21.1079 207.337 22.1614 207.337 23.3451V40H202.028Z" fill="currentColor"/>
<path d="M234.847 11.3636L230.358 0.909058H232.389L235.415 8.32383L238.426 0.909058H240.457L235.983 11.3636H234.847ZM229.861 11.3636V0.909058H231.949V11.3636H229.861ZM238.866 11.3636V0.909058H240.955V11.3636H238.866ZM222.773 11.3636V1.81815H224.861V11.3636H222.773ZM219.591 2.69883V0.909058H228.043V2.69883H219.591Z" fill="currentColor"/>
</svg>
